<svg width="287" height="265" viewBox="0 0 287 265" fill="none" xmlns="http://www.w3.org/2000/svg">
<g filter="url(#filter0_d_5_52)">
<path d="M52.909 61.9729C52.1387 61.5423 51.7264 60.6515 51.9136 59.7891C52.198 58.478 53.6799 57.8189 54.8524 58.4709C99.4755 83.286 121.35 103.116 154.598 145.303C155.492 146.437 155.463 148.062 154.515 149.152C153.144 150.729 150.616 150.455 149.576 148.642C123.267 102.778 98.8855 87.6742 52.909 61.9729Z" fill="black"/>
<path d="M59.3181 92.6601C58.6108 92.9003 58.7744 94.1096 59.5526 94.3933C66.1952 96.8148 74.6059 98.4059 83.5976 98.6695C92.5894 98.9331 100.635 97.8245 106.672 95.7746C107.38 95.5345 107.216 94.3252 106.438 94.0415C99.7952 91.6199 91.5719 91.4139 82.5802 91.1503C73.5884 90.8867 65.3556 90.6103 59.3181 92.6601Z" fill="black"/>
<path d="M46.8807 53.6867C46.0218 53.4534 45.4238 54.521 46.0236 55.2167C51.1434 61.1554 58.555 67.4929 67.3841 73.1163C76.2132 78.7397 85.6436 81.8394 92.2909 84.6853C93.1497 84.9186 93.7477 83.851 93.1479 83.1553C88.0281 77.2166 80.9148 70.4696 72.0857 64.8462C63.2566 59.2228 54.2116 55.6782 46.8807 53.6867Z" fill="black"/>
<path d="M99.7747 46.491C99.4058 45.7207 98.179 45.6847 98.0165 46.4395C96.6293 52.8818 98.6597 61.283 99.9088 70.5141C101.158 79.7453 101.413 88.2383 104.562 94.8136C104.931 95.584 106.158 95.6199 106.32 94.8652C107.708 88.4228 108.966 79.9789 107.717 70.7477C106.468 61.5166 102.923 53.0664 99.7747 46.491Z" fill="black"/>
<path d="M73.7068 115.515C72.8573 115.751 73.021 116.961 73.9413 117.249C81.7973 119.706 91.6346 122.106 102.347 122.42C113.06 122.734 122.828 120.909 130.079 118.894C130.929 118.658 130.765 117.449 129.845 117.161C121.989 114.704 120.963 114.685 110.25 114.371C99.5377 114.057 80.9578 113.501 73.7068 115.515Z" fill="black"/>
<path d="M121.741 59.6328C121.352 58.7098 120.125 58.6738 119.983 59.5812C118.772 67.3269 120.602 77.0798 122.101 88.1593C123.601 99.2388 124.514 109.763 127.839 117.641C128.229 118.564 129.456 118.6 129.597 117.693C130.892 102.53 132.657 98.9216 131.158 87.8421C129.659 76.7627 125.066 67.5114 121.741 59.6328Z" fill="black"/>
<path d="M114.998 136.234C114.578 136.482 114.741 137.692 115.232 137.967C119.425 140.317 124.656 141.815 130.174 141.976C135.691 142.138 140.557 140.936 144.145 138.815C144.565 138.566 144.401 137.357 143.91 137.081C139.717 134.732 134.681 132.625 129.156 134.457C123.631 136.289 118.586 134.112 114.998 136.234Z" fill="black"/>
<path d="M142.136 103.721C141.774 103.18 140.342 103.089 140.084 103.591C137.882 107.873 139.478 114.1 140.109 120.412C140.74 126.724 140.299 132.049 143.391 136.668C143.754 137.209 145.186 137.299 145.444 136.798C147.646 132.515 146.907 130.286 147.247 121.517C147.588 112.748 145.228 108.34 142.136 103.721Z" fill="black"/>
<path fill-rule="evenodd" clip-rule="evenodd" d="M103 198C157.676 198 202 153.676 202 99C202 44.3238 157.676 0 103 0C48.3238 0 4 44.3238 4 99C4 153.676 48.3238 198 103 198ZM103 176.659C145.89 176.659 180.659 141.89 180.659 99C180.659 56.1103 145.89 21.3413 103 21.3413C60.1103 21.3413 25.3413 56.1103 25.3413 99C25.3413 141.89 60.1103 176.659 103 176.659Z" fill="black"/>
<rect x="176.567" y="150.407" width="143.483" height="24.0815" rx="12.0407" transform="rotate(40 176.567 150.407)" fill="black"/>
</g>
<defs>
<filter id="filter0_d_5_52" x="0" y="0" width="285.558" height="264.161" filterUnits="userSpaceOnUse" color-interpolation-filters="sRGB">
<feFlood flood-opacity="0" result="BackgroundImageFix"/>
<feColorMatrix in="SourceAlpha" type="matrix" values="0 0 0 0 0 0 0 0 0 0 0 0 0 0 0 0 0 0 127 0" result="hardAlpha"/>
<feOffset dy="4"/>
<feGaussianBlur stdDeviation="2"/>
<feComposite in2="hardAlpha" operator="out"/>
<feColorMatrix type="matrix" values="0 0 0 0 0 0 0 0 0 0 0 0 0 0 0 0 0 0 0.25 0"/>
<feBlend mode="normal" in2="BackgroundImageFix" result="effect1_dropShadow_5_52"/>
<feBlend mode="normal" in="SourceGraphic" in2="effect1_dropShadow_5_52" result="shape"/>
</filter>
</defs>
</svg>
