<svg width="362" height="272" viewBox="0 0 362 272" fill="none" xmlns="http://www.w3.org/2000/svg">
<g filter="url(#filter0_d_0_3)">
<path d="M174.433 5.71872C178.197 2.44059 183.803 2.4406 187.567 5.71872L317.607 118.959C324.579 125.03 320.285 136.5 311.04 136.5H50.9603C41.7149 136.5 37.4209 125.03 44.3932 118.959L174.433 5.71872Z" fill="black"/>
<path fill-rule="evenodd" clip-rule="evenodd" d="M87 91C81.4772 91 77 95.4771 77 101V254C77 259.523 81.4772 264 87 264H142C147.523 264 152 259.523 152 254V192C152 186.477 156.477 182 162 182H199C204.523 182 209 186.477 209 192V254C209 259.523 213.477 264 219 264H275C280.523 264 285 259.523 285 254V101C285 95.4772 280.523 91 275 91H87Z" fill="black"/>
</g>
<defs>
<filter id="filter0_d_0_3" x="36.9402" y="3.26013" width="288.12" height="268.74" filterUnits="userSpaceOnUse" color-interpolation-filters="sRGB">
<feFlood flood-opacity="0" result="BackgroundImageFix"/>
<feColorMatrix in="SourceAlpha" type="matrix" values="0 0 0 0 0 0 0 0 0 0 0 0 0 0 0 0 0 0 127 0" result="hardAlpha"/>
<feOffset dy="4"/>
<feGaussianBlur stdDeviation="2"/>
<feComposite in2="hardAlpha" operator="out"/>
<feColorMatrix type="matrix" values="0 0 0 0 0 0 0 0 0 0 0 0 0 0 0 0 0 0 0.25 0"/>
<feBlend mode="normal" in2="BackgroundImageFix" result="effect1_dropShadow_0_3"/>
<feBlend mode="normal" in="SourceGraphic" in2="effect1_dropShadow_0_3" result="shape"/>
</filter>
</defs>
</svg>
