<svg width="405" height="395" viewBox="0 0 405 395" fill="none" xmlns="http://www.w3.org/2000/svg">
<g filter="url(#filter0_d_5_2)">
<path d="M77.4911 124.736C75.1634 123.541 73.9682 120.847 74.6911 118.333C75.6387 115.036 79.3872 113.431 82.4425 114.99C189.133 169.436 240.001 215.854 314.594 317.053C316.83 320.086 316.68 324.3 314.207 327.144C310.408 331.515 303.374 330.579 300.754 325.415C244.542 214.61 186.581 180.75 77.4911 124.736Z" fill="black"/>
<path d="M86.352 201.862C84.5246 202.626 84.6858 205.702 86.5831 206.27C102.778 211.124 123.589 213.476 146.135 212.295C168.68 211.113 189.131 206.598 204.73 200.079C206.558 199.315 206.397 196.239 204.499 195.67C188.304 190.817 167.678 191.987 145.132 193.169C122.587 194.351 101.951 195.342 86.352 201.862Z" fill="black"/>
<path d="M63.1506 104.211C61.0402 103.789 59.3163 106.658 60.68 108.323C72.3202 122.536 89.6384 137.3 110.667 149.936C131.696 162.571 154.757 168.592 170.877 174.535C172.987 174.958 174.711 172.089 173.347 170.424C161.707 156.211 145.223 140.331 124.194 127.696C103.166 115.061 81.1647 107.816 63.1506 104.211Z" fill="black"/>
<path d="M197.585 74.7684C196.817 72.8638 193.741 73.025 193.177 74.9994C188.358 91.8534 191.724 113.038 192.954 136.518C194.185 159.998 193.071 181.786 199.625 198.044C200.393 199.948 203.469 199.787 204.033 197.813C208.853 180.959 213.763 158.984 212.532 135.504C211.302 112.024 204.139 91.0263 197.585 74.7684Z" fill="black"/>
<path d="M117.791 257.661C115.607 258.443 115.768 261.519 118.022 262.069C137.259 266.763 161.488 270.901 188.349 269.493C215.21 268.085 240.14 261.371 258.781 254.692C260.965 253.91 260.804 250.834 258.55 250.284C239.313 245.59 236.739 245.753 209.878 247.161C183.017 248.569 136.432 250.981 117.791 257.661Z" fill="black"/>
<path d="M250.079 104.021C249.291 101.728 246.215 101.889 245.671 104.252C241.026 124.421 243.609 149.123 245.086 177.305C246.563 205.486 246.682 232.36 253.41 251.933C254.199 254.226 257.275 254.065 257.819 251.702C264.208 212.442 269.391 202.798 267.914 174.616C266.437 146.434 256.807 123.594 250.079 104.021Z" fill="black"/>
<path d="M217.29 302.401C216.182 303.127 216.343 306.203 217.521 306.809C227.573 311.985 240.412 314.755 254.246 314.03C268.079 313.305 280.558 309.208 290.014 303.01C291.122 302.284 290.961 299.208 289.783 298.602C279.731 293.426 267.509 289.051 253.243 294.904C238.977 300.757 226.746 296.203 217.29 302.401Z" fill="black"/>
<path d="M292.224 213.18C291.425 211.863 287.845 211.926 287.093 213.269C280.672 224.738 283.396 240.42 283.677 256.521C283.958 272.622 281.749 286.407 288.565 297.644C289.364 298.961 292.944 298.898 293.696 297.555C300.117 286.086 298.722 280.506 301.39 257.885C304.059 235.265 299.04 224.417 292.224 213.18Z" fill="black"/>
</g>
<defs>
<filter id="filter0_d_5_2" x="56.1939" y="73.4255" width="263.978" height="264.499" filterUnits="userSpaceOnUse" color-interpolation-filters="sRGB">
<feFlood flood-opacity="0" result="BackgroundImageFix"/>
<feColorMatrix in="SourceAlpha" type="matrix" values="0 0 0 0 0 0 0 0 0 0 0 0 0 0 0 0 0 0 127 0" result="hardAlpha"/>
<feOffset dy="4"/>
<feGaussianBlur stdDeviation="2"/>
<feComposite in2="hardAlpha" operator="out"/>
<feColorMatrix type="matrix" values="0 0 0 0 0 0 0 0 0 0 0 0 0 0 0 0 0 0 0.25 0"/>
<feBlend mode="normal" in2="BackgroundImageFix" result="effect1_dropShadow_5_2"/>
<feBlend mode="normal" in="SourceGraphic" in2="effect1_dropShadow_5_2" result="shape"/>
</filter>
</defs>
</svg>
