<svg width="301" height="241" viewBox="0 0 301 241" fill="none" xmlns="http://www.w3.org/2000/svg">
<g filter="url(#filter0_d_6_24)">
<path d="M186.701 27.9676C186.113 26.3371 186.751 24.4924 188.237 23.6007C190.186 22.4318 192.727 23.3476 193.502 25.4831C220.591 100.054 224.264 145.52 214.684 228.24C214.397 230.719 212.42 232.693 209.938 232.954C206.123 233.355 203.138 229.723 204.202 226.038C227.026 146.968 214.244 104.383 186.701 27.9676Z" fill="black"/>
<path d="M156.153 69.3325C154.923 68.877 153.611 70.4399 154.274 71.5724C159.926 81.2395 168.945 91.7801 180.401 101.392C191.856 111.005 203.803 118.056 214.305 121.944C215.535 122.4 216.846 120.837 216.184 119.705C210.531 110.037 200.011 101.287 188.555 91.6746C177.099 82.0622 166.655 73.2207 156.153 69.3325Z" fill="black"/>
<path d="M189.026 11.5465C188.195 10.3886 186.064 10.9997 185.972 12.4223C185.19 24.5659 186.91 39.5415 191.389 55.1618C195.868 70.782 204.32 84.1166 209.444 94.2775C210.275 95.4355 212.406 94.8244 212.498 93.4017C213.28 81.2582 212.468 66.1194 207.989 50.4991C203.51 34.8789 196.124 21.4306 189.026 11.5465Z" fill="black"/>
<path d="M267.45 58.0127C267.939 56.7432 266.376 55.4318 265.21 56.1332C255.262 62.1208 247.323 73.9037 237.312 85.8342C227.302 97.7646 216.92 107.816 212.75 118.652C212.262 119.922 213.825 121.233 214.99 120.532C224.938 114.544 237.244 106.117 247.255 94.1871C257.265 82.2567 263.281 68.8494 267.45 58.0127Z" fill="black"/>
<path d="M146.177 110.565C144.765 109.957 143.454 111.52 144.297 112.805C151.496 123.769 161.364 136.719 175.012 148.171C188.66 159.623 203.77 167.632 215.817 172.818C217.229 173.425 218.54 171.862 217.697 170.578C210.498 159.613 209.177 158.53 195.529 147.078C181.881 135.626 158.224 115.75 146.177 110.565Z" fill="black"/>
<path d="M279.666 95.8971C280.32 94.4302 278.757 93.1188 277.426 94.0176C266.064 101.69 256.157 114.823 244.142 129.142C232.127 143.461 220.045 156.534 214.462 169.055C213.808 170.522 215.371 171.833 216.702 170.934C237.532 154.802 244.4 152.471 256.415 138.152C268.43 123.833 274.083 108.418 279.666 95.8971Z" fill="black"/>
<path d="M174.166 177.186C173.301 177.037 171.99 178.6 172.286 179.426C174.818 186.474 179.786 193.616 186.815 199.514C193.844 205.412 201.74 209.064 209.121 210.333C209.985 210.482 211.297 208.919 211 208.094C208.469 201.045 204.524 193.405 194.969 189.796C185.414 186.187 181.547 178.455 174.166 177.186Z" fill="black"/>
<path d="M250.771 167.815C250.978 166.816 249.216 165.229 248.245 165.54C239.954 168.196 234.189 177.023 227.052 184.95C219.914 192.877 212.617 198.556 210.843 207.08C210.635 208.078 212.397 209.665 213.369 209.354C221.66 206.699 223.505 203.365 235.016 193.613C246.527 183.86 248.997 176.338 250.771 167.815Z" fill="black"/>
<rect x="4" y="29" width="173" height="33" rx="16.5" fill="black"/>
<rect x="4" y="181" width="163" height="33" rx="16.5" fill="black"/>
<rect x="4" y="105" width="132" height="33" rx="16.5" fill="black"/>
</g>
<defs>
<filter id="filter0_d_6_24" x="0" y="10.939" width="283.819" height="230.045" filterUnits="userSpaceOnUse" color-interpolation-filters="sRGB">
<feFlood flood-opacity="0" result="BackgroundImageFix"/>
<feColorMatrix in="SourceAlpha" type="matrix" values="0 0 0 0 0 0 0 0 0 0 0 0 0 0 0 0 0 0 127 0" result="hardAlpha"/>
<feOffset dy="4"/>
<feGaussianBlur stdDeviation="2"/>
<feComposite in2="hardAlpha" operator="out"/>
<feColorMatrix type="matrix" values="0 0 0 0 0 0 0 0 0 0 0 0 0 0 0 0 0 0 0.25 0"/>
<feBlend mode="normal" in2="BackgroundImageFix" result="effect1_dropShadow_6_24"/>
<feBlend mode="normal" in="SourceGraphic" in2="effect1_dropShadow_6_24" result="shape"/>
</filter>
</defs>
</svg>
