<svg width="296" height="219" viewBox="0 0 296 219" fill="none" xmlns="http://www.w3.org/2000/svg">
<g filter="url(#filter0_d_6_25)">
<path d="M222.35 72.8277C221.972 71.7799 222.382 70.5945 223.337 70.0214C224.589 69.2703 226.222 69.8588 226.72 71.2311C244.128 119.151 246.488 148.368 240.332 201.525C240.147 203.118 238.877 204.386 237.282 204.554C234.831 204.812 232.913 202.478 233.596 200.11C248.263 149.299 240.049 121.933 222.35 72.8277Z" fill="black"/>
<path d="M202.719 99.4092C201.929 99.1165 201.086 100.121 201.512 100.849C205.144 107.061 210.94 113.834 218.301 120.011C225.663 126.188 233.34 130.72 240.088 133.218C240.879 133.511 241.722 132.507 241.296 131.779C237.663 125.567 230.903 119.944 223.541 113.767C216.18 107.589 209.468 101.908 202.719 99.4092Z" fill="black"/>
<path d="M223.844 62.2753C223.31 61.5312 221.94 61.9239 221.881 62.8381C221.379 70.6417 222.484 80.2652 225.362 90.303C228.241 100.341 233.672 108.91 236.964 115.439C237.499 116.183 238.868 115.791 238.927 114.876C239.429 107.073 238.908 97.3445 236.029 87.3067C233.151 77.269 228.405 68.6269 223.844 62.2753Z" fill="black"/>
<path d="M274.24 92.1351C274.554 91.3192 273.55 90.4765 272.801 90.9273C266.408 94.775 261.306 102.347 254.873 110.013C248.44 117.68 241.769 124.139 239.089 131.103C238.776 131.919 239.78 132.761 240.529 132.311C246.922 128.463 254.829 123.048 261.262 115.381C267.695 107.714 271.561 99.0988 274.24 92.1351Z" fill="black"/>
<path d="M196.308 125.906C195.401 125.515 194.559 126.52 195.101 127.345C199.726 134.391 206.068 142.712 214.838 150.072C223.609 157.431 233.318 162.578 241.06 165.91C241.967 166.3 242.81 165.296 242.268 164.471C237.642 157.425 236.793 156.729 228.023 149.369C219.253 142.01 204.05 129.238 196.308 125.906Z" fill="black"/>
<path d="M282.09 116.48C282.51 115.537 281.506 114.695 280.651 115.272C273.35 120.202 266.983 128.642 259.262 137.844C251.541 147.045 243.777 155.446 240.189 163.492C239.769 164.435 240.773 165.277 241.629 164.7C255.015 154.333 259.428 152.835 267.149 143.633C274.87 134.432 278.503 124.526 282.09 116.48Z" fill="black"/>
<path d="M214.295 168.717C213.739 168.622 212.896 169.626 213.087 170.157C214.714 174.686 217.906 179.275 222.423 183.065C226.94 186.855 232.014 189.202 236.757 190.018C237.313 190.114 238.155 189.109 237.965 188.579C236.338 184.05 233.803 179.14 227.663 176.82C221.523 174.501 219.038 169.533 214.295 168.717Z" fill="black"/>
<path d="M263.522 162.695C263.655 162.054 262.523 161.034 261.898 161.234C256.571 162.94 252.866 168.612 248.28 173.706C243.693 178.8 239.003 182.45 237.863 187.927C237.73 188.569 238.863 189.589 239.487 189.389C244.815 187.682 246.001 185.54 253.398 179.273C260.795 173.006 262.382 168.172 263.522 162.695Z" fill="black"/>
<rect x="4" y="76" width="59" height="59" rx="25" fill="black"/>
<rect x="4" width="59" height="59" rx="25" fill="black"/>
<rect x="4" y="152" width="59" height="59" rx="25" fill="black"/>
<rect x="70" y="13" width="204" height="33" rx="16.5" fill="black"/>
<rect x="70" y="165" width="136" height="33" rx="16.5" fill="black"/>
<rect x="70" y="89" width="124" height="33" rx="16.5" fill="black"/>
</g>
<defs>
<filter id="filter0_d_6_25" x="0" y="0" width="286.189" height="219" filterUnits="userSpaceOnUse" color-interpolation-filters="sRGB">
<feFlood flood-opacity="0" result="BackgroundImageFix"/>
<feColorMatrix in="SourceAlpha" type="matrix" values="0 0 0 0 0 0 0 0 0 0 0 0 0 0 0 0 0 0 127 0" result="hardAlpha"/>
<feOffset dy="4"/>
<feGaussianBlur stdDeviation="2"/>
<feComposite in2="hardAlpha" operator="out"/>
<feColorMatrix type="matrix" values="0 0 0 0 0 0 0 0 0 0 0 0 0 0 0 0 0 0 0.25 0"/>
<feBlend mode="normal" in2="BackgroundImageFix" result="effect1_dropShadow_6_25"/>
<feBlend mode="normal" in="SourceGraphic" in2="effect1_dropShadow_6_25" result="shape"/>
</filter>
</defs>
</svg>
